<svg id="visual" viewBox="0 0 960 540" width="960" height="540" xmlns="http://www.w3.org/2000/svg" xmlns:xlink="http://www.w3.org/1999/xlink" version="1.1"><g stroke-width="1" stroke-linejoin="bevel"><path d="M480 298L475 164L412 253Z" fill="#263816" stroke="#263816"></path><path d="M480 298L545 207L475 164Z" fill="#2d3e19" stroke="#2d3e19"></path><path d="M480 298L569 250L545 207Z" fill="#4a5726" stroke="#4a5726"></path><path d="M475 164L377 176L412 253Z" fill="#102106" stroke="#102106"></path><path d="M597 94L450 86L475 164Z" fill="#2d3e19" stroke="#2d3e19"></path><path d="M475 164L450 86L377 176Z" fill="#2d3e19" stroke="#2d3e19"></path><path d="M395 386L480 387L480 298Z" fill="#14270c" stroke="#14270c"></path><path d="M480 298L585 362L569 250Z" fill="#34441c" stroke="#34441c"></path><path d="M480 387L585 362L480 298Z" fill="#425123" stroke="#425123"></path><path d="M377 176L315 290L412 253Z" fill="#2d3e19" stroke="#2d3e19"></path><path d="M412 253L395 386L480 298Z" fill="#34441c" stroke="#34441c"></path><path d="M450 86L380 85L377 176Z" fill="#14270c" stroke="#14270c"></path><path d="M377 176L259 163L315 290Z" fill="#4a5726" stroke="#4a5726"></path><path d="M315 290L395 386L412 253Z" fill="#34441c" stroke="#34441c"></path><path d="M683 242L654 204L569 250Z" fill="#203213" stroke="#203213"></path><path d="M569 250L654 204L545 207Z" fill="#263816" stroke="#263816"></path><path d="M545 207L597 94L475 164Z" fill="#3b4a20" stroke="#3b4a20"></path><path d="M654 204L597 94L545 207Z" fill="#2d3e19" stroke="#2d3e19"></path><path d="M395 386L468 426L480 387Z" fill="#263816" stroke="#263816"></path><path d="M480 387L564 457L585 362Z" fill="#081c00" stroke="#081c00"></path><path d="M645 355L683 242L569 250Z" fill="#1a2c10" stroke="#1a2c10"></path><path d="M662 0L584 0L597 94Z" fill="#2d3e19" stroke="#2d3e19"></path><path d="M564 457L645 355L585 362Z" fill="#2d3e19" stroke="#2d3e19"></path><path d="M585 362L645 355L569 250Z" fill="#14270c" stroke="#14270c"></path><path d="M398 0L310 80L380 85Z" fill="#203213" stroke="#203213"></path><path d="M380 85L310 80L377 176Z" fill="#14270c" stroke="#14270c"></path><path d="M310 80L259 163L377 176Z" fill="#14270c" stroke="#14270c"></path><path d="M597 94L497 0L450 86Z" fill="#102106" stroke="#102106"></path><path d="M450 86L398 0L380 85Z" fill="#3b4a20" stroke="#3b4a20"></path><path d="M468 426L564 457L480 387Z" fill="#425123" stroke="#425123"></path><path d="M497 0L398 0L450 86Z" fill="#1a2c10" stroke="#1a2c10"></path><path d="M597 94L584 0L497 0Z" fill="#2d3e19" stroke="#2d3e19"></path><path d="M678 65L597 94L654 204Z" fill="#425123" stroke="#425123"></path><path d="M163 243L262 375L315 290Z" fill="#425123" stroke="#425123"></path><path d="M315 290L262 375L395 386Z" fill="#3b4a20" stroke="#3b4a20"></path><path d="M395 386L370 467L468 426Z" fill="#14270c" stroke="#14270c"></path><path d="M468 426L481 540L564 457Z" fill="#4a5726" stroke="#4a5726"></path><path d="M273 425L370 467L395 386Z" fill="#1a2c10" stroke="#1a2c10"></path><path d="M773 92L678 65L654 204Z" fill="#081c00" stroke="#081c00"></path><path d="M262 375L273 425L395 386Z" fill="#4a5726" stroke="#4a5726"></path><path d="M172 110L193 187L259 163Z" fill="#102106" stroke="#102106"></path><path d="M259 163L193 187L315 290Z" fill="#1a2c10" stroke="#1a2c10"></path><path d="M262 375L197 386L273 425Z" fill="#2d3e19" stroke="#2d3e19"></path><path d="M786 249L766 202L683 242Z" fill="#102106" stroke="#102106"></path><path d="M683 242L766 202L654 204Z" fill="#203213" stroke="#203213"></path><path d="M795 0L662 0L678 65Z" fill="#1a2c10" stroke="#1a2c10"></path><path d="M678 65L662 0L597 94Z" fill="#263816" stroke="#263816"></path><path d="M373 540L481 540L370 467Z" fill="#203213" stroke="#203213"></path><path d="M370 467L481 540L468 426Z" fill="#102106" stroke="#102106"></path><path d="M772 378L786 249L683 242Z" fill="#203213" stroke="#203213"></path><path d="M772 378L683 242L645 355Z" fill="#3b4a20" stroke="#3b4a20"></path><path d="M694 473L645 355L564 457Z" fill="#34441c" stroke="#34441c"></path><path d="M193 187L163 243L315 290Z" fill="#425123" stroke="#425123"></path><path d="M398 0L257 0L310 80Z" fill="#263816" stroke="#263816"></path><path d="M310 80L172 110L259 163Z" fill="#4a5726" stroke="#4a5726"></path><path d="M193 187L126 173L163 243Z" fill="#203213" stroke="#203213"></path><path d="M163 243L197 386L262 375Z" fill="#102106" stroke="#102106"></path><path d="M285 540L373 540L370 467Z" fill="#3b4a20" stroke="#3b4a20"></path><path d="M285 540L370 467L273 425Z" fill="#081c00" stroke="#081c00"></path><path d="M605 540L694 473L564 457Z" fill="#263816" stroke="#263816"></path><path d="M257 0L172 110L310 80Z" fill="#1a2c10" stroke="#1a2c10"></path><path d="M766 202L773 92L654 204Z" fill="#102106" stroke="#102106"></path><path d="M859 118L773 92L766 202Z" fill="#3b4a20" stroke="#3b4a20"></path><path d="M694 473L772 378L645 355Z" fill="#2d3e19" stroke="#2d3e19"></path><path d="M481 540L605 540L564 457Z" fill="#425123" stroke="#425123"></path><path d="M197 386L203 455L273 425Z" fill="#203213" stroke="#203213"></path><path d="M82 440L203 455L197 386Z" fill="#263816" stroke="#263816"></path><path d="M172 110L126 173L193 187Z" fill="#2d3e19" stroke="#2d3e19"></path><path d="M163 243L115 329L197 386Z" fill="#263816" stroke="#263816"></path><path d="M765 540L777 425L694 473Z" fill="#425123" stroke="#425123"></path><path d="M694 473L777 425L772 378Z" fill="#203213" stroke="#203213"></path><path d="M894 160L766 202L786 249Z" fill="#102106" stroke="#102106"></path><path d="M203 455L285 540L273 425Z" fill="#4a5726" stroke="#4a5726"></path><path d="M257 0L193 0L172 110Z" fill="#14270c" stroke="#14270c"></path><path d="M172 110L107 91L126 173Z" fill="#34441c" stroke="#34441c"></path><path d="M605 540L671 540L694 473Z" fill="#263816" stroke="#263816"></path><path d="M79 270L115 329L163 243Z" fill="#102106" stroke="#102106"></path><path d="M193 0L107 91L172 110Z" fill="#3b4a20" stroke="#3b4a20"></path><path d="M126 173L79 270L163 243Z" fill="#4a5726" stroke="#4a5726"></path><path d="M859 118L795 0L773 92Z" fill="#2d3e19" stroke="#2d3e19"></path><path d="M773 92L795 0L678 65Z" fill="#203213" stroke="#203213"></path><path d="M0 244L79 270L0 202Z" fill="#34441c" stroke="#34441c"></path><path d="M894 160L859 118L766 202Z" fill="#081c00" stroke="#081c00"></path><path d="M875 289L786 249L772 378Z" fill="#3b4a20" stroke="#3b4a20"></path><path d="M894 371L875 289L772 378Z" fill="#081c00" stroke="#081c00"></path><path d="M871 540L851 419L777 425Z" fill="#203213" stroke="#203213"></path><path d="M777 425L851 419L772 378Z" fill="#34441c" stroke="#34441c"></path><path d="M671 540L765 540L694 473Z" fill="#203213" stroke="#203213"></path><path d="M875 289L894 160L786 249Z" fill="#3b4a20" stroke="#3b4a20"></path><path d="M859 118L879 0L795 0Z" fill="#203213" stroke="#203213"></path><path d="M82 440L181 540L203 455Z" fill="#081c00" stroke="#081c00"></path><path d="M203 455L181 540L285 540Z" fill="#263816" stroke="#263816"></path><path d="M82 440L197 386L115 329Z" fill="#34441c" stroke="#34441c"></path><path d="M960 342L894 371L960 437Z" fill="#3b4a20" stroke="#3b4a20"></path><path d="M851 419L894 371L772 378Z" fill="#4a5726" stroke="#4a5726"></path><path d="M875 289L960 258L894 160Z" fill="#3b4a20" stroke="#3b4a20"></path><path d="M0 379L82 440L115 329Z" fill="#102106" stroke="#102106"></path><path d="M193 0L79 0L107 91Z" fill="#263816" stroke="#263816"></path><path d="M0 202L79 270L126 173Z" fill="#081c00" stroke="#081c00"></path><path d="M960 116L879 0L859 118Z" fill="#203213" stroke="#203213"></path><path d="M0 202L126 173L0 100Z" fill="#081c00" stroke="#081c00"></path><path d="M79 270L0 379L115 329Z" fill="#3b4a20" stroke="#3b4a20"></path><path d="M0 100L126 173L107 91Z" fill="#2d3e19" stroke="#2d3e19"></path><path d="M960 342L960 258L875 289Z" fill="#4a5726" stroke="#4a5726"></path><path d="M894 160L960 116L859 118Z" fill="#2d3e19" stroke="#2d3e19"></path><path d="M960 258L960 191L894 160Z" fill="#34441c" stroke="#34441c"></path><path d="M79 0L0 100L107 91Z" fill="#203213" stroke="#203213"></path><path d="M0 465L86 540L82 440Z" fill="#263816" stroke="#263816"></path><path d="M82 440L86 540L181 540Z" fill="#263816" stroke="#263816"></path><path d="M894 371L960 342L875 289Z" fill="#14270c" stroke="#14270c"></path><path d="M960 437L894 371L851 419Z" fill="#4a5726" stroke="#4a5726"></path><path d="M0 244L0 379L79 270Z" fill="#425123" stroke="#425123"></path><path d="M960 191L960 116L894 160Z" fill="#4a5726" stroke="#4a5726"></path><path d="M765 540L871 540L777 425Z" fill="#34441c" stroke="#34441c"></path><path d="M871 540L960 437L851 419Z" fill="#4a5726" stroke="#4a5726"></path><path d="M79 0L0 0L0 100Z" fill="#425123" stroke="#425123"></path><path d="M0 379L0 465L82 440Z" fill="#3b4a20" stroke="#3b4a20"></path><path d="M960 116L960 0L879 0Z" fill="#14270c" stroke="#14270c"></path><path d="M0 465L0 540L86 540Z" fill="#203213" stroke="#203213"></path><path d="M871 540L960 540L960 437Z" fill="#102106" stroke="#102106"></path></g></svg>